<?xml version="1.0" encoding="utf-8"?>
<!-- Generator: Adobe Illustrator 22.0.1, SVG Export Plug-In . SVG Version: 6.00 Build 0)  -->
<svg version="1.1" id="Layer_1" xmlns="http://www.w3.org/2000/svg" xmlns:xlink="http://www.w3.org/1999/xlink" x="0px" y="0px"
	 viewBox="0 0 1920 1080" style="enable-background:new 0 0 1920 1080;" xml:space="preserve">
<style type="text/css">
	.st0{fill:#F7D0E1;}
	.st1{fill:none;stroke:#000000;stroke-miterlimit:10;}
	.st2{fill:none;stroke:#000000;stroke-width:5;stroke-miterlimit:10;}
	.st3{fill:#F74E78;}
	.st4{fill:none;stroke:#000000;stroke-width:0.5;stroke-miterlimit:10;}
	.st5{fill:none;stroke:#F74E78;stroke-miterlimit:10;}
	.st6{font-family:'RobotoMono-Regular';}
	.st7{font-size:24px;}
	.st8{font-size:14px;}
	.st9{fill:#FF0000;}
	.st10{fill:none;stroke:#FF0000;stroke-miterlimit:10;}
</style>
<rect class="st0" width="1920" height="1080"/>
<g>
	<line class="st1" x1="485.2" y1="-767.3" x2="1624.2" y2="-767.3"/>
</g>
<line class="st1" x1="614.2" y1="-756.3" x2="614.2" y2="-777.3"/>
<line class="st2" x1="649.4" y1="-756.3" x2="649.4" y2="-777.3"/>
<line class="st2" x1="485.5" y1="-588.8" x2="485.5" y2="-609.8"/>
<line class="st2" x1="1187.6" y1="-588.8" x2="1187.6" y2="-609.8"/>
<line class="st2" x1="1629.5" y1="-450.3" x2="1629.5" y2="-471.3"/>
<line class="st1" x1="1117.2" y1="-756.8" x2="1117.2" y2="-776.8"/>
<line class="st1" x1="1372.7" y1="-589.3" x2="1372.7" y2="-609.3"/>
<line class="st2" x1="614.7" y1="-767.3" x2="1117.7" y2="-767.3"/>
<text transform="matrix(1 0 0 1 606.2192 -862.8088)" class="st6" style="font-size:18px;">position</text>
<text transform="matrix(1 0 0 1 578.0037 -696.8181)" class="st3 st6" style="font-size:12px;">2 children</text>
<text transform="matrix(1 0 0 1 966.9812 -562.3251)" class="st3 st6" style="font-size:12px;">1 child</text>
<text transform="matrix(1 0 0 1 608.6086 -731.8088)" class="st6" style="font-size:18px;">0</text>
<text transform="matrix(1 0 0 1 1112.6086 -731.8088)" class="st6" style="font-size:18px;">1</text>
<text transform="matrix(1 0 0 1 839.0051 -862.8088)" class="st6" style="font-size:18px;">width</text>
<text transform="matrix(1 0 0 1 837.2048 -733.8088)" class="st6" style="font-size:12px;">relative</text>
<text transform="matrix(1 0 0 1 431.5008 -862.8088)" class="st6" style="font-size:18px;">bounds.min</text>
<text transform="matrix(1 0 0 1 198.2662 -387.1866)" class="st6" style="font-size:18px;">align:</text>
<line class="st1" x1="485.2" y1="-795.8" x2="485.7" y2="-843.8"/>
<line class="st1" x1="649.1" y1="-795.8" x2="649.6" y2="-843.8"/>
<text transform="matrix(1 0 0 1 1570.5007 -862.8088)" class="st6" style="font-size:18px;">bounds.max</text>
<line class="st1" x1="1624.2" y1="-795.8" x2="1624.7" y2="-843.8"/>
<path class="st1" d="M1117.2-786.3c0-57.5-251.5,20-251.5-65.5c0,85.5-251.5,8-251.5,65.5"/>
<line class="st4" x1="627.7" y1="-737.8" x2="827.7" y2="-737.8"/>
<line class="st4" x1="906.5" y1="-737.8" x2="1106.5" y2="-737.8"/>
<polyline class="st1" points="495.5,-757.3 485.5,-757.3 485.5,-777.3 495.5,-777.3 "/>
<polyline class="st1" points="1614.2,-777.3 1624.2,-777.3 1624.2,-757.3 1614.2,-757.3 "/>
<g>
	<line class="st2" x1="485.2" y1="-599.3" x2="865.7" y2="-599.3"/>
</g>
<polyline class="st1" points="495.5,-589.3 485.5,-589.3 485.5,-609.3 495.5,-609.3 "/>
<polyline class="st1" points="855.7,-609.3 865.7,-609.3 865.7,-589.3 855.7,-589.3 "/>
<line class="st2" x1="198.6" y1="-318.8" x2="198.6" y2="-339.8"/>
<g>
	<line class="st2" x1="198.3" y1="-329.3" x2="438.8" y2="-329.3"/>
</g>
<polyline class="st1" points="208.6,-319.3 198.6,-319.3 198.6,-339.3 208.6,-339.3 "/>
<polyline class="st1" points="428.8,-339.3 438.8,-339.3 438.8,-319.3 428.8,-319.3 "/>
<line class="st2" x1="318.7" y1="-253.7" x2="318.7" y2="-274.7"/>
<g>
	<line class="st2" x1="198.3" y1="-264.2" x2="438.8" y2="-264.2"/>
</g>
<polyline class="st1" points="208.6,-254.2 198.6,-254.2 198.6,-274.2 208.6,-274.2 "/>
<polyline class="st1" points="428.8,-274.2 438.8,-274.2 438.8,-254.2 428.8,-254.2 "/>
<line class="st2" x1="438.8" y1="-188.5" x2="438.8" y2="-209.5"/>
<g>
	<line class="st2" x1="198.3" y1="-199" x2="438.8" y2="-199"/>
</g>
<polyline class="st1" points="208.6,-189 198.6,-189 198.6,-209 208.6,-209 "/>
<polyline class="st1" points="428.8,-209 438.8,-209 438.8,-189 428.8,-189 "/>
<g>
	<line class="st2" x1="1249" y1="-460.8" x2="1629.5" y2="-460.8"/>
</g>
<polyline class="st1" points="1259.3,-450.8 1249.3,-450.8 1249.3,-470.8 1259.3,-470.8 "/>
<polyline class="st1" points="1619.5,-470.8 1629.5,-470.8 1629.5,-450.8 1619.5,-450.8 "/>
<g>
	<line class="st2" x1="992.2" y1="-599.3" x2="1372.7" y2="-599.3"/>
</g>
<g>
	<line class="st1" x1="992.2" y1="-599.3" x2="1629.5" y2="-599.3"/>
</g>
<polyline class="st1" points="1002.5,-589.3 992.5,-589.3 992.5,-609.3 1002.5,-609.3 "/>
<polyline class="st1" points="1619.5,-609.3 1629.5,-609.3 1629.5,-589.3 1619.5,-589.3 "/>
<path class="st5" d="M614-675.2c0,52.5-128.8,0-128.8,52.5"/>
<path class="st5" d="M614-675.2c0,26.2,63.4,26.2,286.8,26.2c219.9,0,286.8,0,286.8,26.2"/>
<path class="st5" d="M993.2-541.3c0,26.2,70.4,26.2,318.2,26.2c243.9,0,318.2,0,318.2,26.2"/>
<g>
	<text transform="matrix(1 0 0 1 198.565 -349.2689)" class="st6" style="font-size:12px;">100%</text>
</g>
<g>
	<text transform="matrix(1 0 0 1 198.565 -284.1572)" class="st6" style="font-size:12px;">0%</text>
</g>
<g>
	<text transform="matrix(1 0 0 1 198.565 -219.0457)" class="st6" style="font-size:12px;">-100%</text>
</g>
<rect x="157.7" y="-435.9" class="st1" width="326.4" height="283.8"/>
<text transform="matrix(1 0 0 1 923.6056 93.2163)" class="st6 st7">globalWidth</text>
<text transform="matrix(1 0 0 1 1197.1349 93.2162)" class="st6 st7">resolve</text>
<g>
	<text transform="matrix(1 0 0 1 628.2915 649.565)" class="st6 st8">initial space</text>
</g>
<g>
	<text transform="matrix(1 0 0 1 1212.5649 683.5085)" class="st9 st6 st8">stacked inherit from n - 2</text>
</g>
<g>
	<text transform="matrix(1 0 0 1 1352.2441 809.3444)"><tspan x="0" y="0" class="st9 st6 st8">free inherit from </tspan><tspan x="0" y="16.8" class="st9 st6 st8">n - 1 computed range</tspan></text>
</g>
<g>
	<text transform="matrix(1 0 0 1 1200.8281 975.2214)"><tspan x="0" y="0" class="st9 st6 st8">bounds range is for searches &amp; queries,</tspan><tspan x="0" y="16.8" class="st9 st6 st8">not for design</tspan></text>
</g>
<g>
	<text transform="matrix(1 0 0 1 603.0874 815.3439)" class="st6 st8">produced ranges:</text>
</g>
<g>
	<text transform="matrix(1 0 0 1 409.8423 842.1195)" class="st6 st8">initial (referent for stacked children)</text>
</g>
<g>
	<text transform="matrix(1 0 0 1 519.0669 860.283)" class="st6 st8">computed(from width rules)</text>
</g>
<g>
	<text transform="matrix(1 0 0 1 552.6724 878.6174)" class="st6 st8">bounds (from children)</text>
</g>
<g>
	<text transform="matrix(1 0 0 1 603.0874 711.9044)" class="st6 st8">stacked children</text>
</g>
<g>
	<text transform="matrix(1 0 0 1 628.2847 760.8817)" class="st6 st8">free children</text>
</g>
<text transform="matrix(1 0 0 1 1067.3185 158.466)"><tspan x="0" y="0" class="st6 st8">this.positionMode.is.FREE : parent.range.width</tspan><tspan x="0" y="16.8" class="st6 st8">this.positionMode.is.STACK : parent.width</tspan></text>
<text transform="matrix(1 0 0 1 737.509 305.5)" class="st6 st8">align does not operate in STACK mode</text>
<text transform="matrix(1 0 0 1 737.509 347.9999)" class="st6 st8">align can shift range in FREE mode</text>
<text transform="matrix(1 0 0 1 614.0093 409.8256)" class="st6 st8">align can shift range in FREE mode</text>
<text transform="matrix(1 0 0 1 931.3116 168.4661)" class="st6 st8">this.width</text>
<text transform="matrix(1 0 0 1 335.3446 435.9113)" class="st9 st6 st8">position= -50 || -10%</text>
<text transform="matrix(1 0 0 1 170.0658 305.4998)" class="st6 st8">STACK</text>
<text transform="matrix(1 0 0 1 170.0658 347.9998)" class="st6 st8">FREE</text>
<g>
	<line class="st1" x1="1027.3" y1="149.5" x2="1055.8" y2="178"/>
	<line class="st1" x1="1055.8" y1="149.5" x2="1027.3" y2="178"/>
</g>
<g>
	<line class="st1" x1="230.6" y1="299.5" x2="389.6" y2="299.5"/>
	<line class="st1" x1="230.6" y1="309.5" x2="230.6" y2="289.5"/>
	<circle class="st1" cx="230.6" cy="316.5" r="2.5"/>
	<circle cx="230.6" cy="299.5" r="2"/>
	<line class="st1" x1="389.6" y1="309.5" x2="389.6" y2="289.5"/>
</g>
<g>
	<line class="st1" x1="389.6" y1="299.5" x2="548.6" y2="299.5"/>
	<circle class="st1" cx="389.6" cy="316.5" r="2.5"/>
	<circle cx="389.6" cy="299.5" r="2"/>
	<line class="st1" x1="389.6" y1="309.5" x2="389.6" y2="289.5"/>
	<line class="st1" x1="548.6" y1="309.5" x2="548.6" y2="289.5"/>
</g>
<g>
	<line class="st1" x1="322.6" y1="343" x2="481.6" y2="343"/>
	<circle class="st1" cx="353.1" cy="360" r="2.5"/>
	<circle cx="353.1" cy="343" r="2"/>
	<line class="st1" x1="322.6" y1="353" x2="322.6" y2="333"/>
	<line class="st1" x1="481.6" y1="353" x2="481.6" y2="333"/>
</g>
<g>
	<line class="st1" x1="796.8" y1="756.9" x2="955.8" y2="756.9"/>
	<circle class="st1" cx="827.3" cy="773.9" r="2.5"/>
	<circle cx="827.3" cy="756.9" r="2"/>
	<line class="st1" x1="796.8" y1="766.9" x2="796.8" y2="746.9"/>
	<line class="st1" x1="955.8" y1="766.9" x2="955.8" y2="746.9"/>
</g>
<g>
	<line class="st1" x1="1261.1" y1="756.9" x2="1420.1" y2="756.9"/>
	<circle class="st1" cx="1291.6" cy="773.9" r="2.5"/>
	<circle cx="1291.6" cy="756.9" r="2"/>
	<line class="st1" x1="1261.1" y1="766.9" x2="1261.1" y2="746.9"/>
	<line class="st1" x1="1420.1" y1="766.9" x2="1420.1" y2="746.9"/>
</g>
<g>
	<line class="st1" x1="548.6" y1="299.5" x2="707.6" y2="299.5"/>
	<circle class="st1" cx="548.6" cy="316.5" r="2.5"/>
	<circle cx="548.6" cy="299.5" r="2"/>
	<line class="st1" x1="548.6" y1="309.5" x2="548.6" y2="289.5"/>
	<line class="st1" x1="707.6" y1="309.5" x2="707.6" y2="289.5"/>
</g>
<g>
	<line class="st1" x1="857.1" y1="709.9" x2="1016.1" y2="709.9"/>
	<line class="st1" x1="857.1" y1="719.9" x2="857.1" y2="699.9"/>
	<circle class="st1" cx="857.1" cy="726.9" r="2.5"/>
	<circle cx="857.1" cy="709.9" r="2"/>
	<line class="st1" x1="1016.1" y1="719.9" x2="1016.1" y2="699.9"/>
</g>
<g>
	<line class="st1" x1="1016.1" y1="709.9" x2="1175.1" y2="709.9"/>
	<circle class="st1" cx="1016.1" cy="726.9" r="2.5"/>
	<circle cx="1016.1" cy="709.9" r="2"/>
	<line class="st1" x1="1016.1" y1="719.9" x2="1016.1" y2="699.9"/>
	<line class="st1" x1="1175.1" y1="719.9" x2="1175.1" y2="699.9"/>
</g>
<g>
	<line class="st1" x1="1175.1" y1="709.9" x2="1334.1" y2="709.9"/>
	<circle class="st1" cx="1175.1" cy="726.9" r="2.5"/>
	<circle cx="1175.1" cy="709.9" r="2"/>
	<line class="st1" x1="1175.1" y1="719.9" x2="1175.1" y2="699.9"/>
	<line class="st1" x1="1334.1" y1="719.9" x2="1334.1" y2="699.9"/>
</g>
<text transform="matrix(1 0 0 1 170.0658 467.4998)" class="st6 st8">STACK</text>
<text transform="matrix(1 0 0 1 170.0658 509.9998)" class="st6 st8">FREE</text>
<g>
	<line class="st1" x1="230.6" y1="461.5" x2="389.6" y2="461.5"/>
	<line class="st1" x1="230.6" y1="471.5" x2="230.6" y2="451.5"/>
	<circle class="st1" cx="230.6" cy="478.5" r="2.5"/>
	<circle cx="230.6" cy="461.5" r="2"/>
	<line class="st1" x1="389.6" y1="471.5" x2="389.6" y2="451.5"/>
</g>
<g>
	<line class="st10" x1="359.6" y1="461.5" x2="518.6" y2="461.5"/>
	<circle class="st10" cx="359.6" cy="478.5" r="2.5"/>
	<circle class="st9" cx="359.6" cy="461.5" r="2"/>
	<line class="st10" x1="359.6" y1="471.5" x2="359.6" y2="451.5"/>
	<line class="st10" x1="518.6" y1="471.5" x2="518.6" y2="451.5"/>
</g>
<g>
	<line class="st1" x1="322.6" y1="505" x2="481.6" y2="505"/>
	<circle class="st1" cx="353.1" cy="522" r="2.5"/>
	<circle cx="353.1" cy="505" r="2"/>
	<line class="st1" x1="322.6" y1="515" x2="322.6" y2="495"/>
	<line class="st1" x1="481.6" y1="515" x2="481.6" y2="495"/>
</g>
<g>
	<line class="st1" x1="548.6" y1="461.5" x2="707.6" y2="461.5"/>
	<circle class="st1" cx="548.6" cy="478.5" r="2.5"/>
	<circle cx="548.6" cy="461.5" r="2"/>
	<line class="st1" x1="548.6" y1="471.5" x2="548.6" y2="451.5"/>
	<line class="st1" x1="707.6" y1="471.5" x2="707.6" y2="451.5"/>
</g>
<g>
	<line class="st1" x1="854.6" y1="646.6" x2="1200.8" y2="646.6"/>
	<line class="st1" x1="854.6" y1="842.1" x2="1200.8" y2="842.1"/>
	<line class="st1" x1="854.6" y1="557.4" x2="1200.8" y2="557.4"/>
	<line class="st1" x1="854.6" y1="860.3" x2="1334.1" y2="860.3"/>
	<line class="st1" x1="796.8" y1="878.6" x2="1420.1" y2="878.6"/>
	<circle class="st1" cx="854.6" cy="663.6" r="2.5"/>
	<circle cx="854.6" cy="646.6" r="2"/>
	<line class="st1" x1="854.6" y1="656.6" x2="854.6" y2="636.6"/>
	<line class="st1" x1="1200.8" y1="656.6" x2="1200.8" y2="636.6"/>
</g>
<path class="st10" d="M943.5,562.4c0,0,26.7,25.5,28.8,67.2c2.1,41.7-28.8,73.3-28.8,73.3"/>
<path class="st10" d="M1071.7,702.9c-9.9-107.5-128.1-140.5-128.1-140.5"/>
<path class="st10" d="M1199.8,702.9C1177,588.1,943.5,562.4,943.5,562.4"/>
<path class="st10" d="M921.5,760.9c13.3,51,92.1,94.6,92.1,94.6"/>
<path class="st10" d="M1095.6,883.6c13.3,51,92.1,94.6,92.1,94.6"/>
<path class="st10" d="M1345.8,760.9c-11.7,54.5-91.2,94.6-91.2,94.6"/>
</svg>
